<?xml version="1.0" encoding="UTF-8"?>
<svg version="1.1" xmlns="http://www.w3.org/2000/svg" width="1200" height="1200">
<path d="M0 0 C396 0 792 0 1200 0 C1200 396 1200 792 1200 1200 C804 1200 408 1200 0 1200 C0 804 0 408 0 0 Z " fill="#FEFEFE" transform="translate(0,0)"/>
<path d="M0 0 C2.82781576 2.50512207 4.38169213 5.26080552 6.1875 8.5625 C12.72685939 20.27587547 19.92575188 31.60533711 27 43 C27.99870117 44.6094751 27.99870117 44.6094751 29.01757812 46.25146484 C36.46356888 58.23936207 43.98455951 70.17185844 51.69384766 81.9921875 C53.03484087 84.05355726 54.36809953 86.11974199 55.69921875 88.1875 C65.86480406 103.97358584 76.28915646 119.57862841 87 135 C87.53882813 135.77601563 88.07765625 136.55203125 88.6328125 137.3515625 C104.54666937 160.24135663 120.86369997 182.70438917 138.56884766 204.24853516 C139.83268967 205.79524321 141.07977216 207.35561311 142.32421875 208.91796875 C148.79345762 217.01348578 155.84327966 224.51606063 163 232 C163.86915039 232.92014893 163.86915039 232.92014893 164.75585938 233.85888672 C183.06111138 253.31157246 183.06111138 253.31157246 207.4375 261.4375 C235.94030989 260.35136521 262.96961393 235.01478538 283.45263672 217.32519531 C284.99908704 216.00078188 286.56065789 214.69693738 288.12890625 213.3984375 C299.78799022 203.72082346 310.93760853 193.40710148 321.3984375 182.44140625 C323 181 323 181 325 181 C325 180.34 325 179.68 325 179 C325.66 179 326.32 179 327 179 C327.33 178.01 327.66 177.02 328 176 C329.58398438 174.45483398 329.58398438 174.45483398 331.59375 172.80859375 C335.89079516 169.1605018 339.69047618 165.20922699 343.5 161.0625 C349.68969285 154.39707225 356.01375893 147.89889702 362.5078125 141.52954102 C367.96683581 136.14388402 373.0120496 130.47829827 377.8125 124.5 C378.8953125 123.2625 378.8953125 123.2625 380 122 C380.66 122 381.32 122 382 122 C382.24363281 121.42765625 382.48726562 120.8553125 382.73828125 120.265625 C384.22517298 117.59566462 385.98083908 115.86170993 388.1875 113.75 C391.69691948 110.31894076 394.99788739 106.81034993 398.1953125 103.08984375 C402.48427949 98.12318284 406.93025777 93.29199643 411.328125 88.421875 C413.55605515 85.95144905 415.7795379 83.47713937 418 81 C418.63035156 80.29875 419.26070312 79.5975 419.91015625 78.875 C423.44441319 74.89798999 426.68042495 70.82514802 429.73828125 66.46875 C430.15464844 65.9840625 430.57101562 65.499375 431 65 C431.66 65 432.32 65 433 65 C433.36931641 64.15115234 433.36931641 64.15115234 433.74609375 63.28515625 C435.21536224 60.60751742 436.97752435 58.66956388 439.0625 56.4375 C443.08953115 52.0437903 446.89854625 47.52558069 450.6484375 42.89453125 C453.26095295 39.6787938 455.90696929 36.49271409 458.5625 33.3125 C459.00456787 32.78285645 459.44663574 32.25321289 459.90209961 31.70751953 C460.93431282 30.47132866 461.96709087 29.23560946 463 28 C463 32.37106686 460.431987 34.91376634 457.9375 38.3125 C456.8239499 39.86085059 455.71204701 41.41038679 454.6015625 42.9609375 C454.01149414 43.78303711 453.42142578 44.60513672 452.81347656 45.45214844 C437.84858121 66.47714143 423.87150812 88.24335703 410 110 C409.50306641 110.77424316 409.00613281 111.54848633 408.49414062 112.34619141 C403.80880748 119.6680216 399.25638112 127.06721469 394.75 134.5 C394.37938446 135.11083435 394.00876892 135.7216687 393.62692261 136.35101318 C387.27834078 146.82127395 381.03587355 157.34591429 375 168 C374.59265625 168.71704102 374.1853125 169.43408203 373.765625 170.17285156 C367.00903257 182.09845101 360.61765799 194.20845823 354.34277344 206.39355469 C353.52598208 207.97902096 352.7069264 209.56332694 351.88378906 211.14550781 C339.13080858 235.66855615 326.77270272 261.63953093 322.47265625 289.1484375 C322 292 322 292 321 294 C320.31296864 305.19068388 320.00246805 316.54182745 327.375 325.6875 C332.51511569 330.94955274 338.5899397 334.48246124 345 338 C346.01320313 338.56203125 347.02640625 339.1240625 348.0703125 339.703125 C378.42391917 355.66300664 412.95653353 365.33631005 446 374 C446.94851837 374.24882935 446.94851837 374.24882935 447.91619873 374.50268555 C458.20865795 377.19951898 468.51671585 379.83351484 478.8302002 382.4486084 C480.92355951 382.98057487 483.01613409 383.51550254 485.10839844 384.05175781 C511.83417177 390.90014799 538.70924564 397.12882535 565.80053711 402.3659668 C570.64846858 403.30569028 575.46223033 404.32624538 580.26953125 405.45703125 C587.39472506 407.12201235 594.56214533 408.51025775 601.75 409.875 C604.51979286 410.40488922 607.28921586 410.93669675 610.05859375 411.46875 C611.08620064 411.66590103 611.08620064 411.66590103 612.13456726 411.86703491 C618.03448625 413.0011493 623.92406597 414.18300523 629.8125 415.375 C654.59745872 420.36423368 679.43280421 425.13696523 704.36206055 429.34985352 C710.94700412 430.46411231 717.5089783 431.65212265 724.0625 432.9375 C749.28845067 437.84254596 774.74783185 441.6285787 800.12719727 445.63989258 C809.09109838 447.05687097 818.0526159 448.4812389 827 450 C827 450.33 827 450.66 827 451 C817.87469526 450.3511796 808.78640119 449.49395744 799.69140625 448.51171875 C798.33265997 448.36675693 796.97388432 448.22207027 795.61508179 448.07763672 C792.74608352 447.77265434 789.87715008 447.46707484 787.00827026 447.16098022 C763.20362768 444.62367186 739.3999099 442.20209925 715.53930664 440.24291992 C713.84780054 440.10357686 712.15631231 439.96401671 710.46484375 439.82421875 C709.66787582 439.75848663 708.8709079 439.69275452 708.04978943 439.62503052 C701.74070348 439.09181102 695.45121363 438.42242774 689.16404724 437.67460632 C682.87275041 436.93733369 676.58293449 436.55915534 670.2578125 436.24609375 C667 436 667 436 665.20336914 435.51367188 C662.29650948 434.83599512 659.46839148 434.70417743 656.48828125 434.53515625 C655.84295944 434.49692245 655.19763763 434.45868866 654.53276062 434.41929626 C652.45953063 434.29678292 650.38606659 434.17916692 648.3125 434.0625 C638.84350662 433.52208599 629.3933735 432.88042773 619.94140625 432.09375 C602.74688965 430.67787028 585.52514079 429.66430724 568.3059082 428.60314941 C564.72294219 428.38176316 561.14012353 428.1580433 557.55730629 427.93426418 C554.03950757 427.71469901 550.52164687 427.49614051 547.00376511 427.27791023 C545.35596904 427.17566216 543.70818454 427.07322746 542.06041336 426.97057915 C519.35087293 425.52031576 519.35087293 425.52031576 496.61328125 424.68359375 C495.727509 424.6626767 494.84173676 424.64175964 493.92912292 424.62020874 C491.05699213 424.55471368 488.18480024 424.49506632 485.3125 424.4375 C484.3004248 424.41698578 483.28834961 424.39647156 482.24560547 424.37533569 C394.6216167 416.91767174 394.6216167 416.91767174 313 440 C309.08770693 443.91229307 309.72959537 449.23381618 309.6875 454.5 C309.72665994 500.11263281 334.58383362 548.99819249 352.23425293 590.20861816 C353.30185621 592.70615972 354.3580389 595.20848157 355.4140625 597.7109375 C365.68867564 621.97731563 376.44719686 646.0456377 387.57470703 669.93164062 C388.98426989 672.96613635 390.38278761 676.00545655 391.77734375 679.046875 C413.22389838 725.80185086 435.87481023 771.97751849 458.96240234 817.94091797 C461.9790852 823.94784838 464.98289901 829.96121143 467.98757935 835.97415161 C469.73074358 839.46221405 471.47480232 842.94982922 473.21875 846.4375 C473.93099366 847.86197713 474.64323323 849.2864563 475.35546875 850.7109375 C475.70915527 851.41831055 476.0628418 852.12568359 476.42724609 852.85449219 C479.64453125 859.2890625 479.64453125 859.2890625 480.71466064 861.4294281 C481.42349031 862.84701645 482.13243328 864.26454815 482.8414917 865.68202209 C484.60045982 869.19871289 486.35743327 872.71637326 488.11035156 876.23608398 C491.92069091 883.88235083 495.77824614 891.4983837 499.75 899.0625 C500.78520126 901.04034102 501.82035616 903.01820632 502.85546875 904.99609375 C503.37544434 905.98851074 503.89541992 906.98092773 504.43115234 908.00341797 C505.97384261 910.950038 507.51306888 913.89843577 509.05078125 916.84765625 C509.79920288 918.28286621 509.79920288 918.28286621 510.56274414 919.74707031 C511.55624934 921.65353935 512.54893596 923.56043522 513.54077148 925.46777344 C516.0778995 930.34127674 518.63726701 935.20112814 521.234375 940.04296875 C521.7512085 941.01218262 522.26804199 941.98139648 522.80053711 942.97998047 C523.78954828 944.83279938 524.78490939 946.68224627 525.78735352 948.52783203 C526.44368774 949.76122314 526.44368774 949.76122314 527.11328125 951.01953125 C527.50298096 951.74245361 527.89268066 952.46537598 528.29418945 953.21020508 C528.52710693 953.8008374 528.76002441 954.39146973 529 955 C528.67 955.66 528.34 956.32 528 957 C520.79884914 944.68635104 513.62002247 932.36074776 506.5 920 C493.24398117 896.96550906 493.24398117 896.96550906 479.66455078 874.12109375 C476.45258269 868.7932255 473.31790428 863.42085154 470.18139648 858.04833984 C463.41514544 846.45880972 456.5683693 834.9264876 449.57748413 823.4710083 C443.74958514 813.91909621 438.01212103 804.31645816 432.3125 794.6875 C422.70487643 778.46289731 412.99576823 762.30287947 402.9621582 746.3371582 C398.9720885 739.98117405 395.05117811 733.58308217 391.125 727.1875 C385.97492753 718.80159029 380.78713845 710.4424583 375.51489258 702.1328125 C371.41578159 695.67066829 367.36185533 689.18091617 363.3125 682.6875 C358.7130811 675.31740218 354.08709653 667.96937653 349.3671875 660.67578125 C347.46052946 657.72492082 345.57602881 654.76042722 343.6953125 651.79296875 C338.12743247 643.00795673 332.55397961 634.23533866 326.74707031 625.60595703 C323.93223318 621.41783436 321.1759155 617.19506788 318.4387207 612.95581055 C308.65074337 597.79847888 298.4549473 582.92056669 288.15234375 568.109375 C286.59219832 565.85551699 285.04310896 563.59617684 283.50390625 561.328125 C276.26762104 550.68527669 268.68784815 540.32017889 261 530 C260.20029711 528.92073865 259.40078895 527.84133297 258.6015625 526.76171875 C254.09467451 520.70506445 249.49471923 514.72078065 244.875 508.75 C244.30072266 508.00484131 243.72644531 507.25968262 243.13476562 506.49194336 C239.68056072 502.04509967 236.09749118 497.78706606 232.28955078 493.63769531 C231 492 231 492 231 490 C230.01 489.67 229.02 489.34 228 489 C226.71096241 487.50803188 225.49016022 485.95636119 224.3125 484.375 C220.60365067 479.61519702 216.71210066 475.74763561 212 472 C211.32839844 471.4534375 210.65679687 470.906875 209.96484375 470.34375 C200.41525159 462.83655616 191.02846324 461.12635372 179 462 C154.02865645 466.05848958 133.25339313 480.34385655 114 496 C113.47051758 496.42651855 112.94103516 496.85303711 112.39550781 497.29248047 C101.16827161 506.40080179 91.10624592 516.68300465 81 527 C81 522.82890226 83.12205486 520.19581347 85.25 516.75 C104.42535015 484.84543694 126.04215406 445.57262821 120.57421875 406.99609375 C116.74821549 392.37278068 105.49694655 382.29665751 93.00390625 374.73828125 C92.01261719 374.16464844 91.02132812 373.59101563 90 373 C88.40478516 372.06220703 88.40478516 372.06220703 86.77734375 371.10546875 C75.72083629 364.80513879 63.92824587 360.35567867 52 356 C50.59065186 355.48155518 50.59065186 355.48155518 49.15283203 354.95263672 C31.45919918 348.52502806 13.31996486 344.20170285 -5 340 C-5 339.67 -5 339.34 -5 339 C-3.77821045 339.01571045 -2.5564209 339.0314209 -1.29760742 339.04760742 C57.504826 341.09659523 57.504826 341.09659523 111 320 C112.8452209 318.08950006 114.38671585 316.11743544 116 314 C116.66 314 117.32 314 118 314 C123.35600506 297.84594459 119.3181509 280.91405325 115 265 C114.7642627 264.0939502 114.52852539 263.18790039 114.28564453 262.25439453 C104.16881175 223.56592267 87.96485025 185.44159918 71.05712891 149.27929688 C69.40954926 145.7269173 67.82996578 142.14533283 66.25 138.5625 C62.82619885 130.83628661 59.37991875 123.12013987 55.91491699 115.412323 C55.31840945 114.08402923 54.72305687 112.75521602 54.12902832 111.42581177 C50.2839986 102.82392393 46.22792868 94.35892633 41.98242188 85.94775391 C40.08922462 82.19228423 38.24608846 78.41438143 36.421875 74.625 C36.12706238 74.01301758 35.83224976 73.40103516 35.52850342 72.77050781 C34.91879298 71.50436615 34.30923755 70.23814983 33.6998291 68.97186279 C26.99418801 55.05082778 20.1546936 41.19828122 13.25 27.375 C12.81635132 26.50520508 12.38270264 25.63541016 11.93591309 24.73925781 C10.69397503 22.24948064 9.44908793 19.76120252 8.203125 17.2734375 C7.83707153 16.53934662 7.47101807 15.80525574 7.09387207 15.04891968 C5.39863016 11.67354924 3.65097319 8.3651356 1.73730469 5.10791016 C0 2 0 2 0 0 Z " fill="#010101" transform="translate(189,111)"/>
<path d="M0 0 C0 4.37092528 -2.56776737 6.91396942 -5.0625 10.3125 C-6.16313443 11.84124258 -7.26200552 13.37125582 -8.359375 14.90234375 C-9.24206055 16.13186768 -9.24206055 16.13186768 -10.14257812 17.38623047 C-13.42660595 22.00752409 -16.61981539 26.69033929 -19.8125 31.375 C-20.7262439 32.70978394 -20.7262439 32.70978394 -21.65844727 34.0715332 C-25.90292037 40.30025572 -29.98697227 46.61992192 -34 53 C-34.99 52.67 -35.98 52.34 -37 52 C-39.16715557 52.87483915 -39.16715557 52.87483915 -41 54 C-41.66 52.68 -42.32 51.36 -43 50 C-42.28972656 49.22914063 -41.57945312 48.45828125 -40.84765625 47.6640625 C-39.9191529 46.65114976 -38.99077394 45.63812299 -38.0625 44.625 C-37.59392578 44.11710937 -37.12535156 43.60921875 -36.64257812 43.0859375 C-34.02273232 40.25734146 -34.02273232 40.25734146 -32 37 C-31.34 37 -30.68 37 -30 37 C-29.75378906 36.43410156 -29.50757813 35.86820313 -29.25390625 35.28515625 C-27.78463776 32.60751742 -26.02247565 30.66956388 -23.9375 28.4375 C-19.91046885 24.0437903 -16.10145375 19.52558069 -12.3515625 14.89453125 C-9.73904705 11.6787938 -7.09303071 8.49271409 -4.4375 5.3125 C-3.99543213 4.78285645 -3.55336426 4.25321289 -3.09790039 3.70751953 C-2.06568718 2.47132866 -1.03290913 1.23560946 0 0 Z " fill="#0C0C0C" transform="translate(652,139)"/>
<path d="M0 0 C2.82781576 2.50512207 4.38169213 5.26080552 6.1875 8.5625 C15.77466257 25.75538408 26.52827452 42.33585994 37 59 C34.94766315 61.2477975 33.99332739 62.0022242 31 63 C30.67062439 62.33902817 30.34124878 61.67805634 30.00189209 60.99705505 C26.88534542 54.7438582 23.76683529 48.49164535 20.64616013 42.24050808 C19.04216976 39.02732653 17.43891976 35.81378017 15.83740234 32.59936523 C14.28952227 29.49267615 12.73964449 26.38699108 11.18842316 23.28196907 C10.31416994 21.53073755 9.44194588 19.7784935 8.56976318 18.02622986 C5.23612876 11.35552528 5.23612876 11.35552528 1.60644531 4.84399414 C0 2 0 2 0 0 Z " fill="#0F0F0F" transform="translate(189,111)"/>
<path d="M0 0 C1.32 0 2.64 0 4 0 C5.21883416 2.33609881 6.43766698 4.67219832 7.65649414 7.00830078 C8.73378317 9.07309099 9.81109497 11.13786932 10.88842773 13.20263672 C13.62014919 18.4382054 16.35157883 23.67392561 19.08203125 28.91015625 C19.57646729 29.85793945 20.07090332 30.80572266 20.58032227 31.78222656 C21.56748965 33.67558467 22.55365723 35.5694644 23.53881836 37.46386719 C26.07651032 42.33871933 28.63657856 47.19984465 31.234375 52.04296875 C31.7512085 53.01218262 32.26804199 53.98139648 32.80053711 54.97998047 C33.78954828 56.83279938 34.78490939 58.68224627 35.78735352 60.52783203 C36.22490967 61.35009277 36.66246582 62.17235352 37.11328125 63.01953125 C37.50298096 63.74245361 37.89268066 64.46537598 38.29418945 65.21020508 C38.52710693 65.8008374 38.76002441 66.39146973 39 67 C38.67 67.66 38.34 68.32 38 69 C30.07657439 55.4512932 22.18144903 41.88747286 14.36303711 28.27783203 C11.5451078 23.37931979 8.7118426 18.49385989 5.796875 13.65234375 C5.31959961 12.85691162 4.84232422 12.06147949 4.35058594 11.24194336 C3.47547036 9.78927049 2.59370511 8.34057451 1.70410156 6.89672852 C0.74257359 5.29918557 -0.13868373 3.65372724 -1 2 C-0.67 1.34 -0.34 0.68 0 0 Z " fill="#111111" transform="translate(679,999)"/>
<path d="M0 0 C0 3.30056921 -0.33605871 3.83056539 -2.203125 6.37890625 C-2.68362305 7.0447876 -3.16412109 7.71066895 -3.65917969 8.39672852 C-4.18415039 9.11143311 -4.70912109 9.8261377 -5.25 10.5625 C-9.87949575 16.98091917 -14.37811072 23.46565497 -18.75 30.0625 C-19.2749707 30.85406494 -19.79994141 31.64562988 -20.34082031 32.46118164 C-21.56249071 34.30618252 -22.78236241 36.1523361 -24 38 C-26 37 -28 36 -30 35 C-29.31035156 34.26136719 -28.62070312 33.52273437 -27.91015625 32.76171875 C-22.49888344 26.93285264 -17.2741748 21.02014898 -12.28125 14.82421875 C-9.69836147 11.62656737 -7.07286596 8.46690365 -4.4375 5.3125 C-3.995271 4.78269531 -3.55304199 4.25289062 -3.09741211 3.70703125 C-2.06538579 2.470983 -1.03276209 1.23543356 0 0 Z " fill="#1B1B1B" transform="translate(652,139)"/>
<path d="M0 0 C2.92046874 2.56647253 4.51271285 5.4838483 6.375 8.875 C11.90139945 18.7927198 17.98242481 28.37573711 24 38 C23.34 38.99 22.68 39.98 22 41 C21.34 41 20.68 41 20 41 C19.53625977 40.06728271 19.07251953 39.13456543 18.59472656 38.17358398 C16.85982592 34.68556754 15.1222026 31.19891326 13.38378906 27.71264648 C12.63435726 26.20878021 11.88564646 24.7045544 11.13769531 23.19995117 C10.05727325 21.02686226 8.97419242 18.85511568 7.890625 16.68359375 C7.56128967 16.01976181 7.23195435 15.35592987 6.89263916 14.67198181 C5.27326294 11.43284717 3.59194596 8.26751658 1.75683594 5.14477539 C0 2 0 2 0 0 Z " fill="#131313" transform="translate(189,111)"/>
<path d="M0 0 C0.66 0 1.32 0 2 0 C2.42667969 0.86496094 2.85335937 1.72992187 3.29296875 2.62109375 C3.92398305 3.89347533 4.55554682 5.16558448 5.1875 6.4375 C5.529021 7.12602051 5.87054199 7.81454102 6.22241211 8.52392578 C8.57494846 13.23510236 10.99604716 17.90515511 13.4609375 22.55859375 C14.05495361 23.68402588 14.64896973 24.80945801 15.26098633 25.96899414 C16.45731514 28.23081596 17.66023581 30.48916405 18.86987305 32.74389648 C19.4194165 33.78489502 19.96895996 34.82589355 20.53515625 35.8984375 C21.034104 36.83349121 21.53305176 37.76854492 22.04711914 38.73193359 C22.36156982 39.48039551 22.67602051 40.22885742 23 41 C22.67 41.66 22.34 42.32 22 43 C21.62302979 42.351521 21.24605957 41.70304199 20.85766602 41.03491211 C19.73127172 39.09814494 18.60426448 37.16173418 17.47680664 35.22558594 C16.19727672 33.02781664 14.91912578 30.82924395 13.64233398 28.62988281 C10.82480909 23.78798827 8.00186772 18.95692521 5.03125 14.20703125 C4.6077124 13.52584229 4.1841748 12.84465332 3.74780273 12.14282227 C2.97664876 10.91135847 2.19538317 9.68614997 1.40258789 8.46850586 C-1.06050788 4.52156084 -1.06050788 4.52156084 -0.72265625 1.609375 C-0.48417969 1.07828125 -0.24570312 0.5471875 0 0 Z " fill="#262626" transform="translate(695,1025)"/>
<path d="M0 0 C1.5 1.375 1.5 1.375 3 3 C3 3.66 3 4.32 3 5 C3.66 5.33 4.32 5.66 5 6 C-0.28 11.28 -5.56 16.56 -11 22 C-11 18.71748968 -10.49931946 17.79588445 -8.84765625 15.05859375 C-8.40099609 14.31029297 -7.95433594 13.56199219 -7.49414062 12.79101562 C-7.02169922 12.01435547 -6.54925781 11.23769531 -6.0625 10.4375 C-5.13634409 8.89475611 -4.21054585 7.35179742 -3.28515625 5.80859375 C-2.87144775 5.12595459 -2.45773926 4.44331543 -2.03149414 3.73999023 C-1.30803351 2.51961061 -0.63446382 1.26892765 0 0 Z " fill="#161616" transform="translate(281,616)"/>
<path d="M0 0 C0 3.42409073 -0.54225432 4.13126234 -2.484375 6.8359375 C-3.26941406 7.93808594 -3.26941406 7.93808594 -4.0703125 9.0625 C-4.62460937 9.825625 -5.17890625 10.58875 -5.75 11.375 C-6.28882813 12.13039062 -6.82765625 12.88578125 -7.3828125 13.6640625 C-10.15385715 17.53000771 -12.98119215 21.32174383 -16 25 C-16 24.01 -16 23.02 -16 22 C-16.66 21.67 -17.32 21.34 -18 21 C-17.3709375 20.32195312 -16.741875 19.64390625 -16.09375 18.9453125 C-10.46217221 12.82181978 -5.10642537 6.57559244 0 0 Z " fill="#2A2A2A" transform="translate(652,139)"/>
<path d="M0 0 C0 0.99 0 1.98 0 3 C-0.61875 3.28875 -1.2375 3.5775 -1.875 3.875 C-4.13325765 4.93720042 -4.13325765 4.93720042 -6 7 C-6.5775 6.79375 -7.155 6.5875 -7.75 6.375 C-10.29548874 5.70165425 -10.29548874 5.70165425 -13.25 7.9375 C-14.61125 8.9584375 -14.61125 8.9584375 -16 10 C-14.04547302 5.02484041 -10.3725953 2.79610527 -5.875 0.1875 C-3 -1 -3 -1 0 0 Z " fill="#EDEDED" transform="translate(515,545)"/>
<path d="M0 0 C0.66 0 1.32 0 2 0 C4.31 4.95 6.62 9.9 9 15 C8.01 15.33 7.02 15.66 6 16 C4.79746184 14.09273249 3.61341051 12.1737988 2.4375 10.25 C1.77621094 9.18265625 1.11492188 8.1153125 0.43359375 7.015625 C-1 4 -1 4 -0.71484375 1.609375 C-0.47894531 1.07828125 -0.24304688 0.5471875 0 0 Z " fill="#252525" transform="translate(695,1025)"/>
<path d="M0 0 C0.77923828 0.15210938 1.55847656 0.30421875 2.36132812 0.4609375 C4.26459689 0.83458535 6.16400871 1.22779035 8.0625 1.625 C8.0625 1.955 8.0625 2.285 8.0625 2.625 C-8.8304385 2.80951025 -8.8304385 2.80951025 -15.9375 1.625 C-15.9375 1.295 -15.9375 0.965 -15.9375 0.625 C-10.09356802 -1.5325207 -6.03326573 -1.28213359 0 0 Z " fill="#181818" transform="translate(972.9375,554.375)"/>
<path d="M0 0 C0.763125 0.20625 1.52625 0.4125 2.3125 0.625 C-3.83784169 8.10791572 -3.83784169 8.10791572 -7.6875 10.625 C-7.6875 7.1801941 -6.97537023 4.81078426 -5.6875 1.625 C-2.6875 -0.375 -2.6875 -0.375 0 0 Z " fill="#F8F8F8" transform="translate(566.6875,233.375)"/>
<path d="M0 0 C0.33 0.66 0.66 1.32 1 2 C0.22265625 3.7265625 0.22265625 3.7265625 -0.9375 5.625 C-1.618125 6.73875 -2.29875 7.8525 -3 9 C-3.66 9 -4.32 9 -5 9 C-6.70993434 10.6222454 -8.37347684 12.29413425 -10 14 C-11 15 -12 16 -13 17 C-13.66 16.67 -14.32 16.34 -15 16 C-14.41992188 15.43152344 -13.83984375 14.86304688 -13.2421875 14.27734375 C-8.59383097 9.68268111 -4.17366549 5.029802 0 0 Z " fill="#1B1B1B" transform="translate(606,193)"/>
<path d="M0 0 C6.1105424 -0.11269443 11.95170514 0.10395632 18 1 C18.33 2.32 18.66 3.64 19 5 C16.58179317 4.54884201 14.16567137 4.08938045 11.75 3.625 C11.06808594 3.49867188 10.38617188 3.37234375 9.68359375 3.2421875 C6.17515024 2.56093633 3.08960327 1.83146585 0 0 Z " fill="#2E2E2E" transform="translate(184,450)"/>
<path d="M0 0 C3.21020585 2.74729216 5.03822074 6.29830407 7.0625 9.9375 C7.41376953 10.55818359 7.76503906 11.17886719 8.12695312 11.81835938 C9.83026187 14.8418129 11.48874126 17.87568789 13 21 C12.34 21.66 11.68 22.32 11 23 C9.16002803 19.54515902 7.32916118 16.0855752 5.5 12.625 C4.97535156 11.64015625 4.45070312 10.6553125 3.91015625 9.640625 C3.16572266 8.22910156 3.16572266 8.22910156 2.40625 6.7890625 C1.94541016 5.91975098 1.48457031 5.05043945 1.00976562 4.15478516 C0 2 0 2 0 0 Z " fill="#373737" transform="translate(189,111)"/>
<path d="M0 0 C0.99 0.99 1.98 1.98 3 3 C2.6875 5.1875 2.6875 5.1875 2 7 C0.68 7.33 -0.64 7.66 -2 8 C-2.33 9.65 -2.66 11.3 -3 13 C-4.32 12.67 -5.64 12.34 -7 12 C-4.69 8.04 -2.38 4.08 0 0 Z " fill="#EAEAEA" transform="translate(581,248)"/>
<path d="M0 0 C1.32 0.33 2.64 0.66 4 1 C4 1.99 4 2.98 4 4 C1 6.1875 1 6.1875 -2 8 C-2.66 7.01 -3.32 6.02 -4 5 C-2.68 3.35 -1.36 1.7 0 0 Z " fill="#070707" transform="translate(300,602)"/>
<path d="M0 0 C3.81365679 -0.35475877 5.58442458 -0.2619932 8.875 1.8125 C11 4 11 4 11 7 C6.89188572 5.55007731 3.53144334 3.54592427 0 1 C0 0.67 0 0.34 0 0 Z " fill="#E8E8E8" transform="translate(521,441)"/>
<path d="M0 0 C0.99 0 1.98 0 3 0 C4.6875 2 4.6875 2 6 4 C3.03 6.475 3.03 6.475 0 9 C-1.15941038 5.52176885 -0.70820884 3.54104422 0 0 Z " fill="#F3F3F3" transform="translate(546,249)"/>
<path d="M0 0 C0.66 0 1.32 0 2 0 C1.58578031 4.83256305 -0.46413986 6.82679218 -4 10 C-4.66 9.34 -5.32 8.68 -6 8 C-5.38125 7.236875 -4.7625 6.47375 -4.125 5.6875 C-1.94402948 3.00374191 -1.94402948 3.00374191 0 0 Z " fill="#0C0C0C" transform="translate(634,161)"/>
<path d="M0 0 C1.32 0.33 2.64 0.66 4 1 C3.34 1 2.68 1 2 1 C2 1.66 2 2.32 2 3 C3.32 2.67 4.64 2.34 6 2 C6.33 3.32 6.66 4.64 7 6 C6.34 6 5.68 6 5 6 C5.33 7.65 5.66 9.3 6 11 C5.34 11 4.68 11 4 11 C0.71428571 3.57142857 0.71428571 3.57142857 0 0 Z " fill="#ABABAB" transform="translate(718,1068)"/>
<path d="M0 0 C4 4.625 4 4.625 4 8 C2.02 8.33 0.04 8.66 -2 9 C-2.25 3.375 -2.25 3.375 0 0 Z " fill="#EFEFEF" transform="translate(499,711)"/>
<path d="M0 0 C0.99 0.33 1.98 0.66 3 1 C1.35 2.65 -0.3 4.3 -2 6 C-1.67 6.66 -1.34 7.32 -1 8 C-1.99 8.33 -2.98 8.66 -4 9 C-4.66 8.01 -5.32 7.02 -6 6 C-4.02 4.02 -2.04 2.04 0 0 Z " fill="#F4F4F4" transform="translate(284,623)"/>
<path d="M0 0 C4.66154042 1.49835228 5.86610751 4.88463591 8 9 C5 9 5 9 3.4375 7.5625 C2.963125 7.046875 2.48875 6.53125 2 6 C1.34 5.67 0.68 5.34 0 5 C0.33 4.34 0.66 3.68 1 3 C0.34 2.67 -0.32 2.34 -1 2 C-0.67 1.34 -0.34 0.68 0 0 Z " fill="#151515" transform="translate(273,245)"/>
<path d="M0 0 C0 3 0 3 -1.1875 5.1875 C-3 7 -3 7 -5.6875 7.25 C-6.450625 7.1675 -7.21375 7.085 -8 7 C-6.5361389 2.60841671 -4.02168662 2.12052567 0 0 Z " fill="#131313" transform="translate(299,432)"/>
<path d="M0 0 C4.455 0.99 4.455 0.99 9 2 C7.02 2.99 7.02 2.99 5 4 C4.67 4.66 4.34 5.32 4 6 C2.68 5.34 1.36 4.68 0 4 C0 2.68 0 1.36 0 0 Z " fill="#181818" transform="translate(616,480)"/>
<path d="M0 0 C-0.99 2.97 -1.98 5.94 -3 9 C-3.33 8.34 -3.66 7.68 -4 7 C-4.99 6.67 -5.98 6.34 -7 6 C-6.67 5.34 -6.34 4.68 -6 4 C-5.34 4.33 -4.68 4.66 -4 5 C-4.33 4.01 -4.66 3.02 -5 2 C-2 0 -2 0 0 0 Z " fill="#131313" transform="translate(529,345)"/>
<path d="M0 0 C1.32 0.33 2.64 0.66 4 1 C4 4 4 4 2.5 5.6875 C2.005 6.120625 1.51 6.55375 1 7 C0.01 5.68 -0.98 4.36 -2 3 C-1.34 2.67 -0.68 2.34 0 2 C0 1.34 0 0.68 0 0 Z " fill="#EFEFEF" transform="translate(707,1040)"/>
<path d="M0 0 C0.66 0 1.32 0 2 0 C3.61949011 2.57213134 4.04408751 3.67669159 3.625 6.75 C3.41875 7.4925 3.2125 8.235 3 9 C0.9375 6.75 0.9375 6.75 -1 4 C-0.75 1.6875 -0.75 1.6875 0 0 Z " fill="#1C1C1C" transform="translate(695,1025)"/>
<path d="M0 0 C0.66 0 1.32 0 2 0 C3.32 2.64 4.64 5.28 6 8 C3.5625 7.375 3.5625 7.375 1 6 C0.1875 2.875 0.1875 2.875 0 0 Z M-2 4 C-1.34 4 -0.68 4 0 4 C-0.33 4.66 -0.66 5.32 -1 6 C-1.33 5.34 -1.66 4.68 -2 4 Z " fill="#EEEEEE" transform="translate(627,917)"/>
<path d="M0 0 C2.375 0.25 2.375 0.25 5 1 C6.3125 3.0625 6.3125 3.0625 7 5 C6.01 5.66 5.02 6.32 4 7 C2.02 3.535 2.02 3.535 0 0 Z " fill="#131313" transform="translate(480,682)"/>
<path d="M0 0 C0.66 0.33 1.32 0.66 2 1 C1.67 1.99 1.34 2.98 1 4 C1 4.99 1 5.98 1 7 C-0.32 6.34 -1.64 5.68 -3 5 C-3.33 5.99 -3.66 6.98 -4 8 C-4.66 7.34 -5.32 6.68 -6 6 C-4.02 4.02 -2.04 2.04 0 0 Z " fill="#E6E6E6" transform="translate(293,614)"/>
<path d="M0 0 C2.66735273 2.48952921 4.55746343 4.63408134 6 8 C5.01 8.66 4.02 9.32 3 10 C0.96564469 6.27034861 0 4.33094958 0 0 Z " fill="#1B1B1B" transform="translate(201,132)"/>
<path d="M0 0 C0 4.03223106 -1.64129026 5.80880447 -4 9 C-4.99 9.495 -4.99 9.495 -6 10 C-6.66 9.34 -7.32 8.68 -8 8 C-5.36 5.36 -2.72 2.72 0 0 Z " fill="#303030" transform="translate(540,264)"/>
<path d="M0 0 C3 1 3 1 4.1875 2.8125 C5 5 5 5 5 9 C4.01 8.67 3.02 8.34 2 8 C1.26953125 6.15234375 1.26953125 6.15234375 0.8125 3.9375 C0.65394531 3.20402344 0.49539063 2.47054687 0.33203125 1.71484375 C0.22246094 1.14894531 0.11289062 0.58304688 0 0 Z " fill="#E9E9E9" transform="translate(511,624)"/>
<path d="M0 0 C0.598125 0.20625 1.19625 0.4125 1.8125 0.625 C1.1525 2.275 0.4925 3.925 -0.1875 5.625 C-1.5075 5.625 -2.8275 5.625 -4.1875 5.625 C-4.5175 4.305 -4.8475 2.985 -5.1875 1.625 C-2.1875 -0.375 -2.1875 -0.375 0 0 Z " fill="#0E0E0E" transform="translate(583.1875,241.375)"/>
<path d="M0 0 C1.65 0.33 3.3 0.66 5 1 C3.35 2.98 1.7 4.96 0 7 C-1.04449911 3.86650268 -0.93423645 3.01031744 0 0 Z " fill="#EEEEEE" transform="translate(564,233)"/>
<path d="M0 0 C0.33 0.66 0.66 1.32 1 2 C3.01669827 3.13350534 3.01669827 3.13350534 5 4 C4.34 5.32 3.68 6.64 3 8 C0.9375 5.6875 0.9375 5.6875 -1 3 C-0.67 2.01 -0.34 1.02 0 0 Z " fill="#121212" transform="translate(561,803)"/>
<path d="M0 0 C-0.66 1.32 -1.32 2.64 -2 4 C-2.33 3.34 -2.66 2.68 -3 2 C-5.16874252 2.50603992 -6.99967627 2.99983813 -9 4 C-6.73455663 -1.01633889 -5.27613404 -1.24961069 0 0 Z " fill="#ECECEC" transform="translate(632,180)"/>
<path d="M0 0 C0.66 0 1.32 0 2 0 C1.45156876 3.83901868 -0.2765265 5.36163505 -3 8 C-3.33 8.99 -3.66 9.98 -4 11 C-4.66 10.34 -5.32 9.68 -6 9 C-5.05016642 7.49460339 -4.08988109 5.99579653 -3.125 4.5 C-2.59132813 3.6646875 -2.05765625 2.829375 -1.5078125 1.96875 C-0.76144531 0.99421875 -0.76144531 0.99421875 0 0 Z " fill="#E6E6E6" transform="translate(648,146)"/>
<path d="M0 0 C0.99 0.66 1.98 1.32 3 2 C0.69 4.31 -1.62 6.62 -4 9 C-4 5.00095031 -2.27413033 3.19799578 0 0 Z " fill="#333333" transform="translate(274,629)"/>
<path d="M0 0 C2.9375 0.375 2.9375 0.375 6 1 C6.33 1.66 6.66 2.32 7 3 C5.02 3.66 3.04 4.32 1 5 C0.67 3.35 0.34 1.7 0 0 Z " fill="#111111" transform="translate(336,578)"/>
<path d="M0 0 C2 2 2 2 2 4 C0.37373596 5.38232443 -1.2925002 6.71937515 -3 8 C-3.66 7.34 -4.32 6.68 -5 6 C-3.625 4 -3.625 4 -2 2 C-1.34 2 -0.68 2 0 2 C0 1.34 0 0.68 0 0 Z " fill="#1C1C1C" transform="translate(307,423)"/>
<path d="M0 0 C1.65 1.65 3.3 3.3 5 5 C4.01 5 3.02 5 2 5 C1.67 5.66 1.34 6.32 1 7 C-0.0625 5.1875 -0.0625 5.1875 -1 3 C-0.67 2.01 -0.34 1.02 0 0 Z " fill="#131313" transform="translate(330,320)"/>
<path d="M0 0 C0.99 0 1.98 0 3 0 C1.8141763 3.37503669 0.72426311 5.64722731 -2 8 C-2 4.79604584 -1.25664978 2.90600261 0 0 Z " fill="#171717" transform="translate(605,205)"/>
<path d="M0 0 C2.15377564 2.62198774 3.40072174 4.64404172 4 8 C2.0625 7.3125 2.0625 7.3125 0 6 C-0.8125 3.4375 -0.8125 3.4375 -1 1 C-0.67 0.67 -0.34 0.34 0 0 Z " fill="#1D1D1D" transform="translate(642,919)"/>
<path d="M0 0 C0.66 0 1.32 0 2 0 C2.99 2.31 3.98 4.62 5 7 C3.35 6.67 1.7 6.34 0 6 C0 4.02 0 2.04 0 0 Z " fill="#0E0E0E" transform="translate(617,871)"/>
<path d="M0 0 C2.64752004 2.57784846 4.94432065 4.91648098 7 8 C5.35 8 3.7 8 2 8 C2.33 7.01 2.66 6.02 3 5 C2.01 4.67 1.02 4.34 0 4 C0 2.68 0 1.36 0 0 Z " fill="#E9E9E9" transform="translate(408,589)"/>
<path d="M0 0 C2.1875 0.3125 2.1875 0.3125 4 1 C4.33 2.32 4.66 3.64 5 5 C2.36 4.34 -0.28 3.68 -3 3 C-1.75 1.4375 -1.75 1.4375 0 0 Z " fill="#1D1D1D" transform="translate(232,460)"/>
<path d="M0 0 C0.66 0.66 1.32 1.32 2 2 C1.01 3.98 0.02 5.96 -1 8 C-1.99 7.67 -2.98 7.34 -4 7 C-2.68 4.69 -1.36 2.38 0 0 Z " fill="#111111" transform="translate(550,298)"/>
<path d="M0 0 C0.99 0.33 1.98 0.66 3 1 C1.515 4.465 1.515 4.465 0 8 C-0.66 7.01 -1.32 6.02 -2 5 C-1.125 2.3125 -1.125 2.3125 0 0 Z " fill="#101010" transform="translate(563,273)"/>
<path d="M0 0 C0.99 0.33 1.98 0.66 3 1 C1.35 2.98 -0.3 4.96 -2 7 C-2.99 6.34 -3.98 5.68 -5 5 C-3.35 3.35 -1.7 1.7 0 0 Z " fill="#F6F6F6" transform="translate(537,263)"/>
<path d="M0 0 C0.99 0.33 1.98 0.66 3 1 C2.34 2.98 1.68 4.96 1 7 C-1 4 -1 4 -2 1 C-1.34 0.67 -0.68 0.34 0 0 Z " fill="#F0F0F0" transform="translate(548,713)"/>
<path d="M0 0 C1.98 0.495 1.98 0.495 4 1 C3.34 2.32 2.68 3.64 2 5 C1.01 5 0.02 5 -1 5 C-0.67 3.35 -0.34 1.7 0 0 Z " fill="#1C1C1C" transform="translate(276,625)"/>
<path d="M0 0 C1.32 0.33 2.64 0.66 4 1 C2.68 2.32 1.36 3.64 0 5 C-0.66 4.67 -1.32 4.34 -2 4 C-1.34 2.68 -0.68 1.36 0 0 Z " fill="#0F0F0F" transform="translate(301,603)"/>
<path d="M0 0 C1.485 0.99 1.485 0.99 3 2 C2.67 2.99 2.34 3.98 2 5 C1.01 5 0.02 5 -1 5 C-0.67 3.35 -0.34 1.7 0 0 Z M-2 5 C-1.67 5.99 -1.34 6.98 -1 8 C-1.99 8.495 -1.99 8.495 -3 9 C-2.67 7.68 -2.34 6.36 -2 5 Z " fill="#EAEAEA" transform="translate(528,347)"/>
<path d="M0 0 C0.99 0.33 1.98 0.66 3 1 C2.6875 2.9375 2.6875 2.9375 2 5 C1.01 5.33 0.02 5.66 -1 6 C-1.33 5.01 -1.66 4.02 -2 3 C-1.34 3 -0.68 3 0 3 C0 2.01 0 1.02 0 0 Z " fill="#EFEFEF" transform="translate(442,347)"/>
<path d="M0 0 C1.65 0.33 3.3 0.66 5 1 C5 1.66 5 2.32 5 3 C4.34 3 3.68 3 3 3 C2.67 3.99 2.34 4.98 2 6 C1.01 4.68 0.02 3.36 -1 2 C-0.67 1.34 -0.34 0.68 0 0 Z " fill="#F2F2F2" transform="translate(553,297)"/>
<path d="M0 0 C2.475 0.495 2.475 0.495 5 1 C5.33 2.65 5.66 4.3 6 6 C5.01 6 4.02 6 3 6 C0 2.66666667 0 2.66666667 0 0 Z " fill="#E8E8E8" transform="translate(257,218)"/>
<path d="M0 0 C0.99 0.33 1.98 0.66 3 1 C2.3125 2.9375 2.3125 2.9375 1 5 C-1.625 5.75 -1.625 5.75 -4 6 C-2.68 4.02 -1.36 2.04 0 0 Z " fill="#1A1A1A" transform="translate(620,176)"/>
<path d="M0 0 C2.25245881 2.68841859 3.88213958 4.64641875 5 8 C2.00675737 6.9024777 1.15389099 6.32317108 -0.25 3.375 C-0.4975 2.59125 -0.745 1.8075 -1 1 C-0.67 0.67 -0.34 0.34 0 0 Z " fill="#ECECEC" transform="translate(714,1063)"/>
<path d="M0 0 C2.475 0.495 2.475 0.495 5 1 C5.33 1.99 5.66 2.98 6 4 C4.68 4.33 3.36 4.66 2 5 C1.34 3.35 0.68 1.7 0 0 Z " fill="#161616" transform="translate(688,1017)"/>
<path d="M0 0 C1.32 0.33 2.64 0.66 4 1 C4 2.32 4 3.64 4 5 C3.01 4.67 2.02 4.34 1 4 C0.3125 1.9375 0.3125 1.9375 0 0 Z " fill="#0D0D0D" transform="translate(538,769)"/>
<path d="M0 0 C0.99 0.99 1.98 1.98 3 3 C2.01 4.485 2.01 4.485 1 6 C0.01 5.67 -0.98 5.34 -2 5 C-1.34 3.35 -0.68 1.7 0 0 Z " fill="#F4F4F4" transform="translate(285,601)"/>
<path d="M0 0 C2 4 2 4 1.8125 6.125 C1 8 1 8 -2 10 C-1.34 6.7 -0.68 3.4 0 0 Z " fill="#DFDFDF" transform="translate(299,358)"/>
<path d="M0 0 C1.0625 1.875 1.0625 1.875 2 4 C1.67 4.66 1.34 5.32 1 6 C-0.32 5.34 -1.64 4.68 -3 4 C-3 3.34 -3 2.68 -3 2 C-2.01 1.34 -1.02 0.68 0 0 Z " fill="#ECECEC" transform="translate(254,207)"/>
<path d="M0 0 C0.66 0.33 1.32 0.66 2 1 C1.67 2.65 1.34 4.3 1 6 C0.01 6 -0.98 6 -2 6 C-2 3 -2 3 0 0 Z " fill="#ECECEC" transform="translate(635,165)"/>
<path d="M0 0 C2.475 0.495 2.475 0.495 5 1 C4.67 2.65 4.34 4.3 4 6 C0 1.125 0 1.125 0 0 Z " fill="#EEEEEE" transform="translate(201,130)"/>
</svg>
